@startuml
title Device Management Code Diagram

top to bottom direction

!includeurl https://raw.githubusercontent.com/RicardoNiepel/C4-PlantUML/master/C4_Component.puml

class User {
  +String name
  +String email
  +List<Membership> membership
  +void register()
  +void login()
}

class Membership {
  +String type
  +String status
  +Date startDate
  +Date endDate
  +void control()
  +void status()
}

class Device {
  +Date date
  +String activity
  +void control()
  +void getStatus()
}

User "1" -- "0..*" Membership : has
Membership "1" -- "0..*" Device : includes

@enduml